<svg id="visual" viewBox="0 0 900 600" width="900" height="600" xmlns="http://www.w3.org/2000/svg" xmlns:xlink="http://www.w3.org/1999/xlink" version="1.1"><g transform="translate(457.5774505782168 302.0438518565471)"><path d="M145 -172.8C192.2 -133.1 237.9 -91.6 246 -43.7C254 4.2 224.5 58.3 192.2 107.9C159.9 157.4 124.9 202.3 75.9 229.1C26.8 255.9 -36.4 264.7 -85.7 243.3C-135.1 222 -170.6 170.5 -203.2 116.2C-235.9 62 -265.7 4.9 -262.2 -51.7C-258.7 -108.3 -221.9 -164.4 -172.7 -203.8C-123.4 -243.1 -61.7 -265.5 -6.4 -257.9C48.9 -250.2 97.7 -212.4 145 -172.8" fill="#66fcf1"></path></g></svg>